<svg xmlns="http://www.w3.org/2000/svg" width="36" height="36" viewBox="0 0 36 36">
    <g fill="none" fill-rule="evenodd">
        <path d="M0 0H36V36H0z"/>
        <path fill="#CCEEF3" fill-rule="nonzero" d="M21 3c-3.314 0-6 2.686-6 6s2.686 6 6 6 6-2.686 6-6-2.686-6-6-6z"/>
        <g fill-rule="nonzero">
            <path fill="#00ACC4" d="M19 0c3.866 0 7 3.134 7 7s-3.134 7-7 7-7-3.134-7-7 3.134-7 7-7zm0 2c-2.761 0-5 2.239-5 5s2.239 5 5 5 5-2.239 5-5-2.239-5-5-5z" transform="translate(2 2)"/>
            <path fill="#F8A41B" d="M9 5C6.79 5 5 6.79 5 9s1.79 4 4 4c.5 0 .99-.093 1.449-.27.515-.2.77-.78.57-1.295-.186-.478-.7-.732-1.184-.606l-.11.036c-.23.089-.473.135-.725.135-1.105 0-2-.895-2-2s.895-2 2-2c.552 0 1-.448 1-1s-.448-1-1-1zM2 27v-2c0-3.474 2.235-6.52 5.48-7.595.524-.174.808-.74.635-1.264-.174-.524-.74-.809-1.264-.635C2.793 16.852 0 20.657 0 25v2c0 .552.448 1 1 1s1-.448 1-1zM16.879 22.121c1.171 1.172 3.07 1.172 4.242 0 .39-.39.39-1.023 0-1.414-.362-.363-.934-.388-1.327-.078l-.087.078c-.363.363-.934.389-1.327.078l-.087-.078c-.39-.39-1.024-.39-1.414 0-.39.39-.39 1.024 0 1.414z" transform="translate(2 2)"/>
            <path fill="#F8A41B" d="M18 22v9c0 .552.448 1 1 1s1-.448 1-1v-9c0-.552-.448-1-1-1s-1 .448-1 1z" transform="translate(2 2)"/>
            <path fill="#FEEFD7" d="M13 19v13H7v-3.292c0-4.111 2.323-7.87 6-9.708z" transform="translate(2 2)"/>
            <path fill="#F8A41B" d="M8 31v-2c0-6.075 4.925-11 11-11s11 4.925 11 11v2c0 .552.448 1 1 1s1-.448 1-1v-2c0-7.18-5.82-13-13-13S6 21.82 6 29v2c0 .552.448 1 1 1s1-.448 1-1z" transform="translate(2 2)"/>
        </g>
    </g>
</svg>
