<svg xmlns="http://www.w3.org/2000/svg" width="36" height="36" viewBox="0 0 36 36">
    <g fill="none" fill-rule="evenodd">
        <path d="M0 0H36V36H0z"/>
        <path fill="#FEEFD7" fill-rule="nonzero" d="M18 3C11.925 3 7 7.925 7 14s4.925 11 11 11 11-4.925 11-11S24.075 3 18 3z"/>
        <g fill-rule="nonzero">
            <path fill="#F8A41B" d="M16.5 0c6.627 0 12 5.373 12 12s-5.373 12-12 12-12-5.373-12-12 5.373-12 12-12zm0 2c-5.523 0-10 4.477-10 10s4.477 10 10 10 10-4.477 10-10-4.477-10-10-10z" transform="translate(1.5 2)"/>
            <path fill="#059748" d="M8.008 26.12C9.018 25.397 10.23 25 11.5 25c3.314 0 6 2.686 6 6 0 .552-.448 1-1 1s-1-.448-1-1c0-2.21-1.79-4-4-4-.848 0-1.653.263-2.327.746-.449.322-1.074.219-1.395-.23-.322-.449-.219-1.074.23-1.395z" transform="translate(1.5 2)"/>
            <path fill="#059748" d="M24.992 26.12C23.982 25.397 22.77 25 21.5 25c-3.314 0-6 2.686-6 6 0 .552.448 1 1 1s1-.448 1-1c0-2.21 1.79-4 4-4 .848 0 1.653.263 2.327.746.449.322 1.074.219 1.395-.23.322-.449.22-1.074-.23-1.395z" transform="translate(1.5 2)"/>
            <path fill="#059748" d="M1.5 32h30c.552 0 1-.448 1-1s-.448-1-1-1h-30c-.552 0-1 .448-1 1s.448 1 1 1zM17.5 18V6c0-.552-.448-1-1-1s-1 .448-1 1v12c0 .552.448 1 1 1s1-.448 1-1z" transform="translate(1.5 2)"/>
            <path fill="#059748" d="M16.5 11h-2c-.552 0-1-.448-1-1s.448-1 1-1h5c.552 0 1-.448 1-1s-.448-1-1-1h-5c-1.657 0-3 1.343-3 3s1.343 3 3 3h2c.552 0 1-.448 1-1s-.448-1-1-1z" transform="translate(1.5 2)"/>
            <path fill="#059748" d="M16.5 13h2c.552 0 1 .448 1 1s-.448 1-1 1h-5c-.552 0-1 .448-1 1s.448 1 1 1h5c1.657 0 3-1.343 3-3s-1.343-3-3-3h-2c-.552 0-1 .448-1 1s.448 1 1 1z" transform="translate(1.5 2)"/>
        </g>
    </g>
</svg>
