<svg xmlns="http://www.w3.org/2000/svg" width="38" height="36" viewBox="0 0 38 36">
    <g fill="none" fill-rule="evenodd">
        <path d="M0 0H38V36H0z"/>
        <path fill="#DCF9E8" fill-rule="nonzero" d="M20.475 4.865c-.923-.46-2.027-.46-2.95 0L3.216 12h31.568l-14.31-7.135z"/>
        <g fill-rule="nonzero">
            <path fill="#059748" d="M20.514 1.096L34.822 8.23c1.032.515 1.428 1.724.885 2.701C35.342 11.59 34.623 12 33.84 12H2.272C1.106 12 .16 11.105.16 10c0-.743.434-1.424 1.128-1.77l14.308-7.134C17.055.369 18.782.33 20.268.98l.246.115zm-.984 1.77c-.923-.46-2.026-.46-2.95 0L2.273 10h31.567L19.53 2.865z" transform="translate(.944 2)"/>
            <path fill="#CCEEF3" d="M5.389 14h6.333v12H8.39c-1.657 0-3-1.343-3-3v-9z" transform="translate(.944 2)"/>
            <path fill="#00ACC4" d="M33.889 30H2.222c-.583 0-1.055.448-1.055 1s.472 1 1.055 1H33.89c.583 0 1.055-.448 1.055-1s-.472-1-1.055-1zM29.667 15v9c0 1.105-.946 2-2.111 2h-19c-1.166 0-2.112-.895-2.112-2v-9c0-.552-.472-1-1.055-1s-1.056.448-1.056 1v9c0 2.21 1.89 4 4.223 4h19c2.331 0 4.222-1.79 4.222-4v-9c0-.552-.473-1-1.056-1-.583 0-1.055.448-1.055 1z" transform="translate(.944 2)"/>
            <path fill="#00ACC4" d="M17 15v8c0 .552.473 1 1.056 1 .583 0 1.055-.448 1.055-1v-8c0-.552-.472-1-1.055-1S17 14.448 17 15zM10.667 15v8c0 .552.472 1 1.055 1s1.056-.448 1.056-1v-8c0-.552-.473-1-1.056-1-.583 0-1.055.448-1.055 1zM23.333 15v8c0 .552.473 1 1.056 1 .583 0 1.055-.448 1.055-1v-8c0-.552-.472-1-1.055-1s-1.056.448-1.056 1z" transform="translate(.944 2)"/>
        </g>
    </g>
</svg>
